<?xml version="1.0" standalone="no"?>
<!DOCTYPE svg PUBLIC "-//W3C//DTD SVG 20010904//EN"
 "http://www.w3.org/TR/2001/REC-SVG-20010904/DTD/svg10.dtd">
<svg version="1.0" xmlns="http://www.w3.org/2000/svg"
 width="662.000000pt" height="377.000000pt" viewBox="0 0 662.000000 377.000000"
 preserveAspectRatio="xMidYMid meet">

<g transform="translate(0.000000,377.000000) scale(0.100000,-0.100000)"
fill="#000000" stroke="none">
<path d="M3120 3754 c-114 -20 -161 -33 -274 -76 -140 -52 -205 -85 -306 -156
-165 -115 -298 -260 -396 -432 -72 -126 -109 -225 -151 -405 -33 -140 -35
-158 -30 -270 5 -110 31 -247 66 -345 67 -184 203 -471 306 -645 26 -44 61
-105 77 -135 47 -84 270 -429 373 -575 220 -314 508 -695 525 -695 25 0 448
574 667 905 456 690 683 1191 683 1509 0 104 -29 262 -78 421 -50 162 -191
387 -327 519 -73 71 -221 178 -317 230 -90 48 -247 110 -337 132 -55 14 -428
28 -481 18z m320 -1554 l0 -740 -130 0 -130 0 2 666 3 667 113 68 c97 58 125
74 140 78 1 1 2 -332 2 -739z m577 584 c3 -9 -1 -29 -11 -44 -13 -23 -16 -60
-16 -218 0 -120 4 -193 10 -197 6 -4 35 -9 65 -12 l55 -6 0 -423 0 -424 -130
0 -130 0 0 425 0 425 34 0 c69 0 66 -9 66 216 0 141 -4 210 -12 223 -9 15 -9
23 1 35 17 21 60 21 68 0z m-247 -733 c0 -576 0 -589 -20 -594 -10 -3 -67 -2
-125 0 l-105 6 0 588 0 589 125 0 125 0 0 -589z m-1010 -86 l0 -505 -130 0
-130 0 0 505 0 505 130 0 130 0 0 -505z m285 296 l56 -69 -3 -278 c-1 -154 -4
-318 -6 -366 l-3 -88 -120 0 -119 0 0 366 0 366 43 51 c23 29 49 60 57 69 8
10 20 18 27 18 7 0 37 -31 68 -69z"/>
</g>
</svg>
